<svg width="624" height="740" viewBox="0 0 624 740" fill="none" xmlns="http://www.w3.org/2000/svg">
<g filter="url(#filter0_di_517_133)">
<path d="M1.74883 730.92C1.73042 729.107 2.99128 728.37 4.03125 727.229C38.3321 689.44 73.2955 651.753 109.704 615.988C118.465 607.383 130.384 598.465 138.225 589.363C147.493 578.614 167.123 547.249 172.204 534.18C179.042 516.583 175.581 499.999 178.315 481.454C179.76 471.653 183.202 462.781 185.098 453.31C191.19 422.903 187.113 392.072 189.184 361.802C190.518 342.346 204.839 312.546 210.287 291.902C212.698 282.764 214.916 273.431 216.509 264.108C218.22 254.058 218.193 241.376 221.119 231.952C223.761 223.457 234.381 216.49 240.244 209.717C243.217 206.284 251.003 197.145 253.046 194.034C255.089 190.924 259.626 170.041 261.789 164.179C265.176 155.003 267.228 149.324 278.751 150.963C285.239 151.892 294.856 161.731 300.857 162.154L333.989 83.9257C335.728 67.9855 323.055 59.3712 325.007 42.5107C328.449 12.83 303.73 20.4878 347.611 14.34L532.111 9.84001C550.951 11.1561 536.076 -11.246 537.843 7.53803C541.331 44.609 553.912 73.4891 556.249 111.075C556.525 113.229 558.697 111.959 559.148 115.576C559.802 120.859 566.723 158.399 565.453 160.773C544.257 160.773 565.094 169.461 564.532 170.437C562.719 173.612 571.886 184.242 570.634 188.844C583.068 193.059 604.705 192.203 612.141 205.391C616.559 213.232 616.32 219.896 612.104 227.792C609.159 233.314 598.971 243.898 592.704 245.159C582.875 247.147 581.154 242.545 582.497 257.095C583.114 263.759 584.835 261.743 588.516 264.863C595.437 270.726 601.705 271.94 607.834 278.631C608.966 279.865 616.172 288.718 616.393 289.372C616.706 290.292 616.918 291.972 617.111 292.92C618.593 300.319 618.841 303.793 613.779 310.364C612.095 312.546 604.548 317.074 604.539 318.629C604.512 321.132 607.363 324.272 609.111 325.92C611.872 328.515 616.111 338.42 617.111 341.92C617.397 342.92 617.111 342.92 617.534 344.481C617.221 345.53 618.4 348.135 618.427 349.856C618.556 358.857 617.976 367.563 611.93 374.696C603.656 384.451 594.683 386.439 582.553 382.537V407.349C598.281 401.873 607.806 413.092 606.454 428.489C607.77 428.738 607.659 426.74 607.834 425.765C608.892 419.985 608.055 417.04 605.533 411.951C614.829 417.178 619.835 426.179 616.071 436.744C611.295 450.163 594.112 451.976 582.976 457.875C579.966 482.853 591.572 519.133 562.038 531.612C546.862 538.027 511.31 532.616 492.921 534.171C490.492 534.373 487.685 534.732 485.577 536.021C441.742 571.978 406.079 618.759 361.525 653.685C340.625 670.076 317.57 678.856 295.215 692.155C280.757 700.751 273.017 716.866 264.587 730.92H1.74883ZM293.982 242.803C290.2 243.926 289.031 250.405 286.988 253.736C283.748 259.001 278.392 264.145 276.965 270.376C276.109 274.131 276.919 277.361 276.468 280.914C274.977 292.694 271.093 305.349 272.796 317.773C273.339 321.712 276.993 326.157 275.603 331.053L286.638 323.258C287.982 322.062 293.982 316.162 293.982 314.975V242.812V242.803Z" fill="#A1A1A1"/>
</g>
<defs>
<filter id="filter0_di_517_133" x="-5.96046e-06" y="0" width="623.872" height="739.111" filterUnits="userSpaceOnUse" color-interpolation-filters="sRGB">
<feFlood flood-opacity="0" result="BackgroundImageFix"/>
<feColorMatrix in="SourceAlpha" type="matrix" values="0 0 0 0 0 0 0 0 0 0 0 0 0 0 0 0 0 0 127 0" result="hardAlpha"/>
<feOffset dx="1.84067" dy="4.60166"/>
<feGaussianBlur stdDeviation="1.79465"/>
<feComposite in2="hardAlpha" operator="out"/>
<feColorMatrix type="matrix" values="0 0 0 0 1 0 0 0 0 1 0 0 0 0 1 0 0 0 1 0"/>
<feBlend mode="normal" in2="BackgroundImageFix" result="effect1_dropShadow_517_133"/>
<feBlend mode="normal" in="SourceGraphic" in2="effect1_dropShadow_517_133" result="shape"/>
<feColorMatrix in="SourceAlpha" type="matrix" values="0 0 0 0 0 0 0 0 0 0 0 0 0 0 0 0 0 0 127 0" result="hardAlpha"/>
<feOffset dx="4" dy="9"/>
<feGaussianBlur stdDeviation="1.5"/>
<feComposite in2="hardAlpha" operator="arithmetic" k2="-1" k3="1"/>
<feColorMatrix type="matrix" values="0 0 0 0 0 0 0 0 0 0 0 0 0 0 0 0 0 0 0.4 0"/>
<feBlend mode="normal" in2="shape" result="effect2_innerShadow_517_133"/>
</filter>
</defs>
</svg>
