<svg width="73" height="62" viewBox="0 0 73 62" fill="none" xmlns="http://www.w3.org/2000/svg">
<path d="M23.5086 34.6846V39.2658C21.0547 36.4593 17.4265 34.6846 13.3799 34.6846C5.99206 34.6846 0 40.6053 0 47.9087C0 55.2121 5.99206 61.131 13.3799 61.131C17.4265 61.131 21.0547 59.3563 23.5086 56.5498V61.1367H31.5174V34.6846H23.5086ZM22.6362 50.1825L22.6156 50.2181C21.58 51.7884 20.4263 52.2874 18.8373 52.308C16.5691 52.3174 14.8338 50.2725 14.755 48.2614C14.7194 47.9988 14.7288 47.7043 14.588 47.4848C14.423 47.2371 13.8676 47.0777 13.4587 47.1283C12.3912 47.2465 12.3443 48.4903 12.53 49.3158C12.8884 50.8654 13.6256 51.6889 14.3629 52.3887C15.042 52.9909 15.8619 53.4449 16.7511 53.7263C16.9368 53.7901 17.1244 53.8576 17.2895 53.9608C18.9292 55.1333 17.464 57.3902 15.6555 56.576C12.9672 55.6568 10.8998 53.8145 9.83043 51.0455C9.28825 49.6459 9.15692 47.6386 9.84731 46.3479C10.4026 45.2354 11.6108 44.2711 12.9015 44.1173C14.9539 43.7927 17.2708 44.9183 17.6854 47.0082C17.8467 47.5917 17.7135 48.3365 18.1206 48.8393C18.4001 49.2482 19.0211 49.3458 19.4357 49.1563C21.0228 48.3083 19.4976 45.3742 18.6572 44.3949C16.708 41.8022 12.712 41.4965 10.0424 43.0855C7.73113 44.3799 6.67493 47.4716 7.2565 49.8073C7.3897 50.6703 7.81181 51.143 7.84558 51.9347C7.84558 53.0284 6.56987 53.7638 5.62248 53.2329C5.26978 53.0585 5.00151 52.7114 4.85518 52.3662C4.60379 51.7809 4.33552 50.9967 4.1723 50.0455C3.9922 49.0118 3.97907 47.8994 4.15729 46.8507C4.64131 43.9803 6.41979 41.4514 9.04999 40.142C13.061 38.1665 18.2107 38.8569 21.0547 42.4908C22.7132 44.5094 23.957 47.7549 22.6362 50.1825Z" fill="#434343"/>
<path d="M49.6354 0V4.54938C52.0461 1.76347 55.6068 0 59.5821 0C66.8405 0 72.7219 5.87949 72.7219 13.1304C72.7219 20.3812 66.8405 26.2607 59.5821 26.2607C55.6068 26.2607 52.0461 24.4973 49.6354 21.7113V26.2645H41.7673V0H49.6354ZM65.6811 6.58676C65.6267 6.34475 65.4823 6.13839 65.2722 6.00519L65.2027 5.96204C64.4955 5.51179 62.8408 4.45746 59.8166 4.45183C56.74 4.45183 54.6031 5.75192 53.8265 6.31098C53.6257 6.45544 53.4925 6.6693 53.4531 6.91506C53.4137 7.15895 53.4719 7.40471 53.6164 7.60732C53.7908 7.84933 54.0722 7.99191 54.3686 7.99191C54.5638 7.99191 54.7514 7.93187 54.9108 7.81744C55.543 7.36531 57.2878 6.31098 59.7998 6.31098C62.293 6.31098 63.6288 7.1627 64.1991 7.52665L64.276 7.57543C64.4899 7.70863 64.7394 7.75365 64.9832 7.6955C65.2234 7.64109 65.4279 7.49664 65.5592 7.28652C65.6924 7.07828 65.7355 6.82877 65.6811 6.58676ZM67.9155 14.3385C68.0581 14.3385 68.1969 14.3066 68.3282 14.2429C68.5515 14.1303 68.7184 13.9408 68.7972 13.7044C68.876 13.4699 68.8573 13.2185 68.7466 12.9953C67.0844 9.65783 63.6044 7.50039 59.8823 7.50039H59.8204C58.6085 7.50977 57.3215 7.82119 55.8845 8.45716C55.4173 8.6654 55.2054 9.21321 55.4117 9.68221C55.6218 10.1493 56.1715 10.3613 56.6386 10.1569C57.8412 9.62593 58.8861 9.36517 59.8317 9.35954H59.8504C59.8617 9.35766 59.8711 9.35766 59.8823 9.35766C62.9046 9.35766 65.7318 11.1118 67.0863 13.8245C67.242 14.1378 67.5665 14.3385 67.9155 14.3385ZM54.3818 17.5878L54.4005 17.6235C54.8189 18.4152 55.6218 18.9217 56.5486 18.9817C57.4472 19.038 58.2858 18.6497 58.7923 17.9349C59.1019 17.5409 59.2951 17.0063 59.3664 16.3496C59.402 16.132 59.4452 15.9801 59.5559 15.89C59.8073 15.7118 60.1243 15.6912 60.387 15.8431C60.659 15.9988 60.8034 16.2971 60.7734 16.6404C60.749 17.7848 60.0136 18.7397 59.3908 19.2143C59.0625 19.4732 58.6685 19.6909 58.2483 19.8447C57.8581 19.9498 57.541 20.1843 57.3984 20.475C57.284 20.7114 57.2821 20.9778 57.3947 21.2423C57.5298 21.5181 57.7455 21.6945 58.0213 21.7601C58.1057 21.7789 58.1958 21.7883 58.2877 21.7883C59.0719 21.7883 60.0868 21.1148 60.6571 20.6795C62.3906 19.3757 63.034 16.9744 62.5463 15.5523C62.2349 14.6425 61.4601 14.0046 60.4733 13.8433C59.4715 13.6782 58.4828 14.0534 57.8937 14.8207C57.6086 15.1565 57.541 15.5655 57.4735 15.9613C57.4266 16.2427 57.3816 16.5072 57.2577 16.7267C57.1358 16.935 56.9144 17.055 56.6649 17.0344C56.406 17.0156 56.1828 16.8562 56.0833 16.6179C55.7625 15.6011 56.5692 14.2035 57.4941 13.4136C58.9011 12.2205 61.2743 12.2768 62.7864 13.5375C63.5668 14.1941 64.0659 15.2503 64.1203 16.3628C64.1522 16.9443 64.0452 17.5897 63.8201 18.1825C63.7338 18.4114 63.6588 18.6572 63.6982 18.9217C63.7207 19.2087 63.9102 19.4751 64.2009 19.6233C64.488 19.7678 64.82 19.764 65.0695 19.6102C65.2909 19.4901 65.4654 19.2706 65.5967 18.9442C65.7674 18.5183 65.8931 18.07 65.9719 17.6085C66.5103 14.7156 64.7975 11.7946 62.0754 10.9617C60.0849 10.3013 57.8637 10.6277 56.421 11.7928C54.7007 13.1247 53.4663 15.6574 54.3818 17.5878ZM51.8829 14.3404H51.8848C52.0142 14.4042 52.1568 14.438 52.2956 14.438C52.6521 14.438 52.971 14.241 53.1286 13.9239C53.4963 13.1829 53.9784 12.5038 54.5619 11.9034C54.7345 11.7252 54.8283 11.4888 54.8245 11.2412C54.8226 10.9917 54.7213 10.7609 54.5431 10.5883C54.1792 10.2319 53.5901 10.2394 53.2299 10.6052C52.5151 11.3425 51.9223 12.1792 51.4664 13.0947C51.2375 13.5544 51.4251 14.1134 51.8829 14.3404Z" fill="#434343"/>
<path d="M8.32719 0.092041V4.64143C10.736 1.85551 14.3005 0.092041 18.2758 0.092041C25.5304 0.092041 31.4156 5.97153 31.4156 13.2224C31.4156 20.4733 25.5304 26.3528 18.2758 26.3528C14.3005 26.3528 10.736 24.5874 8.32719 21.8034V26.3565H0.460981V0.092041H8.32719ZM24.9264 6.80637C24.1065 6.04095 21.8984 4.70333 18.8236 4.55513C18.7411 4.5495 18.6585 4.54762 18.576 4.54575C15.4674 4.47633 13.1411 6.07659 12.0267 7.03712C11.5896 7.41983 11.5427 8.08395 11.9236 8.52106C12.1168 8.74431 12.3982 8.87751 12.6946 8.88314H12.719C12.9704 8.88314 13.2143 8.79309 13.4075 8.628C14.1148 8.01266 16.0321 6.59625 18.5234 6.64691C18.5872 6.64691 18.6529 6.65066 18.7204 6.65441C20.4483 6.73883 22.0992 7.32415 23.4968 8.34847C23.6844 8.51919 23.9264 8.61674 24.1816 8.62425C24.4724 8.62988 24.7706 8.50793 24.9733 8.29031C25.1646 8.0877 25.2659 7.8213 25.2584 7.5399C25.249 7.25849 25.1308 6.99773 24.9264 6.80637ZM11.8485 16.7681L11.8673 16.8038C12.3776 17.7587 13.3456 18.3721 14.4581 18.4453C15.5368 18.5185 16.548 18.0438 17.1689 17.179C17.5517 16.6949 17.7787 16.0515 17.8556 15.2204C17.8893 14.9896 17.9456 14.8227 18.0225 14.7345C18.212 14.515 18.6754 14.4193 19.0356 14.5244C19.7879 14.7608 19.696 15.725 19.6491 16.0158C19.4221 17.4585 18.5122 18.3721 17.9907 18.7886C17.5535 19.1375 17.047 19.4133 16.4879 19.6084C16.0583 19.7154 15.6888 19.9968 15.5199 20.3438C15.3811 20.6327 15.3811 20.946 15.5237 21.2518C15.6719 21.5689 15.9139 21.7677 16.2403 21.8428C16.3416 21.8672 16.4467 21.8784 16.5555 21.8784C17.6774 21.8784 19.1838 20.7359 19.499 20.4864C21.1218 19.2238 22.7745 16.119 21.512 13.8115C21.0617 12.9541 20.2081 12.3801 19.1707 12.2412C18.0807 12.0949 17.0132 12.4589 16.3135 13.2112C16.0227 13.5226 15.8145 13.9109 15.7113 14.3349C15.6569 14.5244 15.6306 14.7289 15.6062 14.9258C15.5668 15.2504 15.5274 15.5581 15.3567 15.7963C15.1653 16.0777 14.8577 16.2109 14.5275 16.1603C14.1767 16.1059 13.8953 15.862 13.7902 15.5224C13.5313 14.1116 14.52 12.6164 15.4467 11.761C16.4917 10.8061 18.0507 10.3971 19.6191 10.6672C21.1649 10.9336 22.4781 11.8285 23.1329 13.0611C23.9114 14.3687 23.9696 16.2766 23.2848 17.8187C23.1085 18.2877 23.2379 18.7886 23.6094 19.1057C23.9677 19.4114 24.4423 19.4565 24.8513 19.2238C25.0933 19.0869 25.2847 18.8561 25.4235 18.541C25.6543 17.995 25.8231 17.4116 25.9282 16.8019C26.5848 13.3087 24.5193 9.76863 21.2268 8.74431C18.8274 7.93949 16.1371 8.3147 14.3812 9.70109C13.3512 10.4853 12.4639 11.6353 11.9479 12.8528C11.5296 13.8471 11.1713 15.3329 11.8485 16.7681Z" fill="#434343"/>
</svg>
