<svg width="43" height="28" viewBox="0 0 43 28" fill="none" xmlns="http://www.w3.org/2000/svg">
<path d="M12.3557 0C12.4065 0 12.4572 0 12.508 0C12.9195 0.665282 13.3619 1.31291 13.7304 2.00026C14.0095 2.52101 14.3162 2.59824 14.88 2.43495C18.9456 1.25444 23.0278 1.2423 27.1099 2.37538C33.0986 4.03692 37.8692 7.5862 42.0683 12.0225C42.3816 12.3535 42.6685 12.6988 42.8571 13.117V13.7271C42.7358 13.9124 42.621 14.1022 42.492 14.282C39.1655 18.896 34.9256 22.3018 29.4765 24.1035C28.4703 24.4367 28.435 24.4543 29.0506 25.2895C29.4125 25.7805 29.3364 26.0166 28.83 26.3057C28.2419 26.6411 27.7068 27.0669 27.1475 27.4531H26.9952C26.6951 26.7216 26.1479 26.1402 25.775 25.455C25.5698 25.0777 25.3105 25.0369 24.9034 25.0931C22.5743 25.4131 20.2497 25.3215 17.9328 24.9376C11.3274 23.842 5.97209 20.5388 1.52695 15.6369C0.952136 15.0036 0.338709 14.388 0 13.5748C0 13.4226 0 13.2703 0 13.117C0.126878 12.904 0.229483 12.6701 0.385047 12.4804C3.00094 9.30732 6.0096 6.59103 9.62948 4.59519C10.2021 4.27965 11.1277 4.07995 11.2657 3.63422C11.4334 3.09251 10.6699 2.50556 10.3036 1.94509C10.1061 1.64169 10.1083 1.51481 10.4261 1.31622C11.088 0.904695 11.7147 0.441314 12.3557 0ZM21.0419 4.2631C19.4079 4.2653 17.8048 4.46721 16.2216 4.8688C15.8057 4.97472 15.7858 5.09939 16.0087 5.41934C16.3717 5.93899 16.7391 6.45974 17.0447 7.01249C17.3061 7.4858 17.5103 7.57737 18.0189 7.25742C19.2744 6.46857 20.6844 6.1442 22.165 6.2799C25.1417 6.55352 27.5899 8.57584 28.3633 11.3528C29.1819 14.2931 28.1437 17.2841 25.6393 19.0802C25.273 19.3428 25.1682 19.5017 25.4638 19.8856C25.8489 20.3876 26.1931 20.9249 26.5109 21.4722C26.7525 21.8881 26.9963 21.9764 27.4906 21.8429C32.3539 20.5377 36.2109 17.753 39.3674 13.9014C39.6488 13.5583 39.5881 13.384 39.3079 13.1037C38.1207 11.9188 36.8917 10.7802 35.5633 9.75526C31.2804 6.45202 26.5495 4.32819 21.0419 4.2631ZM22.0591 22.5567C22.3934 22.5567 22.5732 22.571 22.7498 22.5534C23.0443 22.5236 23.4514 22.6814 23.6026 22.4066C23.7571 22.1231 23.3963 21.8782 23.2374 21.6365C20.125 16.8781 17.0027 12.1262 13.8882 7.36995C12.9206 5.89265 12.9393 5.9103 11.4003 6.7157C10.8663 6.99483 10.8177 7.20777 11.1498 7.70976C14.1739 12.2829 17.1914 16.8615 20.1614 21.4688C20.6822 22.2765 21.1875 22.8391 22.0591 22.5567ZM18.3807 22.2489C18.298 22.079 18.255 21.962 18.1888 21.8605C15.2728 17.4054 12.3502 12.9548 9.44413 8.4931C9.19258 8.10695 9.00392 8.12901 8.69058 8.38718C8.22058 8.77223 7.73624 9.14514 7.23314 9.48605C6.82162 9.76519 6.76645 10.0013 7.06655 10.4404C9.41324 13.8727 11.7323 17.3249 14.0625 20.7694C14.2026 20.9768 14.3151 21.2162 14.5821 21.3034C15.8068 21.7038 17.0414 22.0591 18.3818 22.2489H18.3807ZM10.7581 19.5657C10.799 19.5171 10.8409 19.4697 10.8817 19.4211C9.48274 17.3448 8.08819 15.2651 6.6826 13.1931C6.2446 12.5477 5.77901 11.921 5.32666 11.2855C4.60291 11.7224 4.14174 12.4307 3.53934 12.9912C3.16974 13.3354 3.29441 13.5373 3.58016 13.8418C4.62167 14.9528 5.69516 16.0296 6.88781 16.9785C8.10584 17.9483 9.35586 18.875 10.7581 19.5635V19.5657ZM19.2689 7.66232C19.1166 7.70094 18.7956 7.76713 18.4834 7.86312C17.9725 8.01979 17.8081 8.24375 18.1788 8.76892C19.0107 9.94723 19.7918 11.1642 20.563 12.3844C20.808 12.7716 20.9812 12.7783 21.3067 12.4815C22.1551 11.7059 22.4596 10.5187 22.0481 9.42979C21.6476 8.37174 20.584 7.64908 19.27 7.66232H19.2689Z" fill="#434343"/>
</svg>
