<svg width="46" height="39" viewBox="0 0 46 39" fill="none" xmlns="http://www.w3.org/2000/svg">
<path d="M12.7271 0.00468596C13.4311 0.769668 13.2367 1.65531 12.5923 2.32306C11.9492 2.98964 11.4771 3.79445 10.8714 4.49617C10.3911 5.0538 10.001 5.68758 9.56286 6.28152C9.48554 6.38696 9.44571 6.47599 9.5324 6.58377C9.67298 6.75715 9.81005 6.60251 9.89557 6.53574C10.3841 6.15969 10.8503 5.75553 11.333 5.37245C12.6333 4.33685 14.1211 3.63513 15.6394 2.99784C16.3891 2.68271 17.1916 2.56322 17.9976 2.48239C18.6114 2.42147 19.2148 2.28089 19.8415 2.3008C20.5257 2.32189 20.6323 2.80806 20.4144 3.32703C20.214 3.805 19.8146 4.09435 19.3307 4.16347C17.9531 4.35911 16.6867 4.90034 15.3758 5.31387C14.7104 5.52357 14.2137 5.87385 13.7521 6.3565C13.1394 6.9973 12.4307 7.52682 11.6774 7.9919C11.5028 8.09968 11.415 8.22385 11.3634 8.41715C11.6095 8.52024 11.8004 8.38786 11.9914 8.28946C13.0445 7.74471 14.1551 7.36984 15.3055 7.08282C16.3423 6.82392 17.3884 6.95044 18.4299 6.9235C19.3471 6.90007 20.0559 7.36632 20.6662 7.98956C21.2309 8.56593 21.9467 8.94198 22.5488 9.46915C22.7679 9.66127 22.7972 9.79013 22.6332 10.0033C22.4422 10.2517 22.2231 10.4731 21.9771 10.6641C21.539 11.005 20.8724 10.7953 20.3991 10.4356C19.8766 10.0385 19.3225 9.68236 18.8305 9.23953C18.5763 9.00992 18.2014 9.11301 17.8933 9.17042C17.5653 9.23133 17.2502 9.24188 16.9198 9.25125C16.2169 9.27234 15.5187 9.26062 14.8756 9.79833C14.1563 10.3993 13.3351 10.8972 12.5619 11.4454C12.2643 11.6563 11.9679 11.8824 11.8777 12.2678C11.859 12.3452 11.8637 12.4553 11.907 12.5127C11.9785 12.6064 12.0616 12.4998 12.1237 12.4658C13.6396 11.6376 15.2973 11.6059 16.9561 11.6282C17.4411 11.6352 17.8043 12.0324 18.1991 12.2795C19.2183 12.9192 20.1355 13.7017 21.0669 14.4597C21.45 14.7713 21.6538 15.2165 21.4675 15.7354C21.3726 16.0002 21.5191 16.2321 21.5284 16.4817C21.5507 17.0768 21.5249 17.659 21.266 18.212C21.1419 18.4779 21.0657 18.7473 21.4312 18.9207C21.5671 18.9851 21.5355 19.1374 21.5038 19.264C21.4535 19.4655 21.4336 19.6822 21.3469 19.8673C20.822 20.9884 20.5549 22.2114 19.9868 23.3138C19.6447 23.9769 19.0578 24.2651 18.3525 24.4244C16.2603 24.8977 14.25 25.6451 12.2596 26.4241C11.1959 26.8412 10.1615 26.881 9.10481 26.608C8.52727 26.4581 7.95441 26.4393 7.38506 26.485C6.63765 26.5459 5.87267 26.5202 5.15338 26.8119C4.37785 27.1258 3.61521 27.462 2.89358 27.8896C2.7038 28.0021 2.48824 28.0712 2.29963 28.1849C2.07002 28.3219 1.96224 28.2505 1.84275 28.0279C1.03677 26.5225 0.401821 24.9644 0.145265 23.2564C0.0925476 22.9061 0.217897 22.5266 0 22.2021V20.323C0.186267 19.9212 0.0679463 19.4959 0.0749753 19.0836C0.0808327 18.7544 0.145265 18.5622 0.481482 18.4064C1.84861 17.7773 2.70965 16.6925 3.25791 15.3008C3.84483 13.8119 4.16347 12.2362 4.77733 10.7578C5.13932 9.88385 5.43688 8.98532 6.04722 8.22971C6.43967 7.74354 6.88835 7.28315 7.14725 6.70677C7.4987 5.92188 7.98018 5.22836 8.5343 4.58169C9.02866 4.00415 9.57926 3.47112 10.0467 2.87249C10.8316 1.86735 11.7828 1.011 12.5584 0H12.7294L12.7271 0.00468596ZM17.6684 21.546C17.9296 21.6233 18.1206 21.3844 18.26 21.061C18.6642 20.1297 19.3577 19.4303 20.1109 18.7837C20.2656 18.6513 20.2269 18.5857 20.1203 18.4463C19.5803 17.7445 19.148 16.9901 19.0402 16.0869C19.0144 15.8725 18.8551 15.7835 18.6524 15.7085C17.891 15.425 17.1459 15.0946 16.5824 14.4808C16.3622 14.2406 16.1923 14.2512 15.9358 14.4199C15.2434 14.8744 14.4679 15.1649 13.6713 15.3606C13.1792 15.4812 12.7645 15.6874 12.385 16.0084C11.7418 16.552 11.62 17.3486 11.3611 18.0784C11.1432 18.6923 11.3201 19.1855 11.7981 19.6248C12.4096 20.1871 13.0117 20.7682 13.4299 21.4992C13.7357 22.0334 13.7228 22.0181 14.2945 21.8084C15.0361 21.5355 15.7975 21.3363 16.6035 21.4359C16.9093 21.4734 17.2174 21.4992 17.6672 21.5449L17.6684 21.546Z" fill="#434343"/>
<path d="M33.7396 30.0112C33.5182 29.9421 33.305 30.0217 33.1632 30.1049C31.9378 30.83 30.5871 31.2108 29.2165 31.4837C28.5593 31.6149 27.8529 31.4837 27.1722 31.5212C26.0125 31.5857 25.0893 31.192 24.2869 30.3368C23.7866 29.8026 23.1447 29.3973 22.5472 28.9592C22.2883 28.7694 22.2789 28.5984 22.4781 28.3863C22.6526 28.1989 22.8295 28.0114 23.0228 27.8451C23.4 27.5229 23.9717 27.4995 24.4544 27.8416C25.0471 28.261 25.6716 28.6405 26.1976 29.1466C26.4834 29.4219 26.8313 29.3188 27.123 29.2708C27.4932 29.2087 27.8482 29.1935 28.2231 29.1911C28.9388 29.1864 29.6406 29.1419 30.265 28.6241C31.1002 27.9306 32.0691 27.4046 32.8891 26.683C32.9641 26.6174 33.0437 26.5518 33.0964 26.4698C33.2054 26.3011 33.3202 26.082 33.1808 25.925C33.08 25.8114 32.8996 25.9895 32.7813 26.0609C31.9624 26.5541 31.0428 26.6139 30.1291 26.7451C29.5187 26.8329 28.9142 26.7907 28.3086 26.82C28.0883 26.8306 27.9021 26.7685 27.7111 26.6607C26.6732 26.075 25.729 25.358 24.8199 24.5954C24.4602 24.2931 24.008 24.0928 23.7655 23.6488C23.6121 23.3677 23.5195 23.1052 23.6214 22.7772C23.7152 22.4762 23.6308 22.1692 23.5804 21.8611C23.4856 21.2789 23.6332 20.7224 23.8511 20.18C23.946 19.9446 24.0303 19.688 23.6964 19.5381C23.5523 19.4736 23.5394 19.3237 23.5828 19.2054C24.076 17.8675 24.5329 16.5133 25.0975 15.2047C25.3787 14.5534 25.9515 14.2078 26.713 14.0344C28.2535 13.683 29.7636 13.1898 31.242 12.6169C31.8886 12.3662 32.5705 12.1987 33.2031 11.9187C34.1203 11.5122 35.0364 11.6083 35.9514 11.8379C36.7948 12.0499 37.6442 11.9749 38.4853 11.9433C39.5443 11.9023 40.5096 11.4688 41.4515 11.012C41.9283 10.78 42.3875 10.5106 42.8538 10.2575C43.0236 10.165 43.1162 10.1708 43.2404 10.377C44.1694 11.914 44.7246 13.5892 44.9929 15.3465C45.1534 16.4032 45.1792 17.4821 45.021 18.5564C44.9578 18.9875 45.137 19.5181 44.9425 19.8497C44.7539 20.1718 44.2221 20.2866 43.8531 20.5104C42.7495 21.1781 42.2059 22.2512 41.7584 23.4005C41.0989 25.0979 40.7205 26.8892 39.9813 28.5609C39.6509 29.3083 39.2737 30.0276 38.7348 30.6285C38.2768 31.1393 37.9956 31.7368 37.6571 32.3096C37.1779 33.1191 36.6051 33.8572 35.9666 34.553C34.9486 35.6613 33.9774 36.8117 32.9852 37.9445C32.9477 37.9867 32.9102 38.0324 32.8645 38.0652C32.6981 38.1835 32.6033 38.4939 32.376 38.4119C32.1288 38.3229 32.0269 38.0382 31.9437 37.784C31.7528 37.2006 31.9742 36.7332 32.335 36.288C33.2499 35.1564 34.1625 34.0223 35.0575 32.8743C35.2344 32.647 35.3024 32.3389 35.5402 32.1433C35.6433 32.0578 35.6421 31.9523 35.5566 31.8446C35.4453 31.704 35.3316 31.8164 35.2625 31.8692C34.8947 32.1491 34.5421 32.449 34.1812 32.7396C32.4568 34.1278 30.552 35.1938 28.4046 35.7444C27.3936 36.0033 26.3405 36.1404 25.2826 36.1299C24.6617 36.124 24.4286 35.7585 24.6512 35.1739C24.8667 34.6093 25.3201 34.3422 25.8637 34.2602C27.1675 34.0645 28.3613 33.501 29.6183 33.1824C30.6586 32.9188 31.2092 32.1257 31.9449 31.5341C32.4264 31.1463 32.9231 30.7855 33.4315 30.4423C33.6049 30.3263 33.674 30.1963 33.7373 30.0147L33.7396 30.0112ZM33.845 19.8555C33.8567 19.4736 33.6775 19.1972 33.4303 18.9511C32.7532 18.2752 32.0269 17.6391 31.5864 16.7675C31.4611 16.5203 31.3498 16.4582 31.0651 16.559C29.9826 16.9444 28.8873 17.2291 27.7181 16.9221C27.3187 16.8179 27.041 16.9784 26.8419 17.42C26.4482 18.2916 25.7887 18.9898 25.0694 19.6119C24.889 19.7688 24.8328 19.797 24.9933 20.0125C25.5111 20.706 25.9785 21.4324 26.0546 22.3344C26.0734 22.5535 26.2268 22.6507 26.4307 22.7233C27.239 23.0115 27.9934 23.3993 28.5979 24.0284C28.7631 24.2006 28.9084 24.2146 29.1122 24.067C29.4039 23.855 29.7308 23.7039 30.0646 23.5574C30.6398 23.3044 31.249 23.1732 31.8383 22.9729C33.3225 22.4656 33.5358 21.1243 33.8439 19.8567L33.845 19.8555Z" fill="#434343"/>
</svg>
