<svg width="33" height="37" viewBox="0 0 33 37" fill="none" xmlns="http://www.w3.org/2000/svg">
<path d="M3.23724 27.1112C3.23724 26.0573 3.25644 25.0034 3.07617 23.958C2.9311 23.1207 2.57482 22.47 1.66813 22.2545C1.37585 22.1852 1.09851 22.0518 0.814772 21.9484C0.0382182 21.6657 -0.177254 21.1665 0.142754 20.3931C0.400895 19.7691 0.75077 19.1963 1.13265 18.6427C1.8132 17.656 2.49055 16.6672 3.1903 15.6933C3.56365 15.1738 3.65965 14.65 3.49004 14.0218C3.0175 12.2745 3.1295 10.5347 3.80685 8.86856C5.80584 3.94896 9.5062 1.10408 14.7063 0.273127C18.332 -0.307155 21.9119 0.0171205 25.3317 1.43902C29.479 3.1628 31.8716 6.27329 32.6023 10.7097C33.2423 14.5935 32.4604 18.1083 30.0785 21.2593C29.4673 22.0678 28.8902 22.9031 28.2982 23.7265C26.1776 26.677 26.025 29.8312 27.3296 33.1337C27.4597 33.4633 27.6262 33.7791 27.7723 34.1034C28.0272 34.6666 27.864 35.0997 27.2891 35.3023C23.7018 36.5632 20.0174 37.0976 16.2178 36.7562C14.7821 36.6272 13.3879 36.3146 12.014 35.8847C11.3121 35.665 10.943 35.2309 10.8748 34.497C10.8236 33.9466 10.8748 33.3897 10.767 32.8425C10.559 31.7886 9.87848 31.1955 8.80432 31.1198C8.1771 31.075 7.57548 31.2254 6.96427 31.3161C6.36265 31.4057 5.75784 31.4228 5.15729 31.2958C3.91032 31.0334 3.29377 30.3251 3.2415 29.0472C3.21484 28.4029 3.23724 27.7565 3.23724 27.1101V27.1112ZM8.04056 13.6697C8.44057 14.2863 8.94085 14.6948 9.55634 14.9626C10.2817 15.2773 11.0486 15.3669 11.8337 15.3679C12.0791 15.3679 12.3873 15.2101 12.5516 15.3733C12.717 15.5365 12.5815 15.8501 12.5804 16.0965C12.5772 17.7189 14.013 18.9851 15.6344 18.8027C16.4728 18.7088 17.1533 18.3131 17.7678 17.7755C18.0344 17.5419 18.2702 17.273 18.5262 17.0256C18.8238 16.7376 19.1385 16.7248 19.3987 16.9786C19.643 17.2176 19.6494 17.5269 19.3977 17.8245C18.9443 18.3589 18.4419 18.8432 17.851 19.2272C17.2355 19.6272 16.5709 19.8971 15.836 19.9793C15.6738 19.9974 15.436 19.9483 15.3826 20.1169C15.3282 20.2886 15.5053 20.4486 15.629 20.5851C15.8029 20.7761 16.029 20.8859 16.2712 20.9574C16.6691 21.0737 17.0787 21.1131 17.4819 21.0225C17.7742 20.9563 18.0088 21.0033 18.2627 21.1611C18.9753 21.6038 19.7507 21.67 20.5433 21.431C20.8046 21.3521 20.97 21.3862 21.1716 21.5761C22.8858 23.1996 25.4608 22.4732 26.0837 20.183C26.1797 19.831 26.313 19.7627 26.6501 19.8182C28.0411 20.0465 29.2891 18.8432 29.1025 17.4565C29.0609 17.1472 29.1462 16.9456 29.3617 16.729C30.7526 15.3317 31.1014 13.1599 30.247 11.3902C30.118 11.1235 29.9323 10.9507 29.6593 10.8451C28.7856 10.5059 28.0198 10.7385 27.32 11.5694C26.9989 11.9502 26.6725 12.0174 26.3739 11.7646C26.088 11.5225 26.0922 11.2142 26.3877 10.8249C27.0512 9.95125 27.9067 9.45097 29.0299 9.52031C29.3361 9.53951 29.4491 9.40297 29.5163 9.13736C29.7126 8.36508 29.2187 7.51279 28.4112 7.36558C28.0507 7.30051 28.0272 7.17571 28.0539 6.86317C28.1168 6.10582 27.4672 5.48607 26.7397 5.61514C26.4496 5.66634 26.3973 5.5874 26.3451 5.33459C26.1168 4.20603 25.1237 3.63322 24.0549 4.01723C23.8159 4.10363 23.7231 4.06096 23.5962 3.84976C23.081 2.98787 22.1209 2.64652 21.21 3.0092C20.9689 3.1052 20.8494 3.06573 20.6777 2.89186C19.7251 1.9233 18.2734 1.9329 17.3336 2.91533C17.1565 3.10094 17.0488 3.12867 16.8173 2.99427C15.7368 2.36812 14.3991 2.66252 13.7687 3.70468C13.5372 4.08763 13.357 4.1111 12.974 3.96496C12.0257 3.60228 11.0006 3.90736 10.4193 4.66791C10.3148 4.80445 10.2017 4.93565 10.2838 5.13086C10.6177 5.92021 10.8268 6.24235 11.6663 5.709C11.7217 5.6738 11.7793 5.63967 11.8401 5.6162C12.1484 5.49567 12.4204 5.54367 12.5964 5.83701C12.7682 6.12502 12.7159 6.40769 12.4535 6.6125C11.3441 7.48185 10.0428 7.36985 9.40167 6.08021C9.3494 5.97461 9.28326 5.87221 9.247 5.76021C9.15313 5.469 8.96325 5.46153 8.71898 5.5522C8.1227 5.77407 7.75149 6.43009 7.92963 7.09358C8.02456 7.44558 7.90083 7.49465 7.61282 7.57039C6.61546 7.83386 5.95304 8.46961 5.70664 9.47977C5.46236 10.4846 5.7333 11.3636 6.49386 12.0644C7.24908 12.7599 8.41177 12.6287 9.02512 11.7988C9.11793 11.6729 9.18833 11.5289 9.26513 11.3913C9.47847 11.0041 9.76968 10.8793 10.1036 11.0361C10.4332 11.1908 10.5249 11.514 10.3436 11.9097C9.90088 12.8772 9.16059 13.4703 8.0395 13.6729L8.04056 13.6697Z" fill="#434343"/>
<path d="M23.3009 15.6259C22.3462 15.6205 21.4566 14.8696 21.1942 13.7965C21.112 13.4605 20.9701 13.3143 20.6299 13.2173C19.2666 12.8279 18.5434 11.8274 18.1946 10.5132C18.1071 10.1836 18.3247 9.83692 18.6149 9.75692C18.9466 9.66625 19.2421 9.85079 19.3616 10.2273C19.401 10.3521 19.4213 10.4844 19.4682 10.606C19.8416 11.5692 20.5328 12.1058 21.575 12.1858C22.0624 12.2231 22.2534 12.4343 22.2811 12.9101C22.3419 13.9437 22.4891 14.1357 23.4662 14.4482C23.7937 14.5528 23.9868 14.7608 23.9462 15.1171C23.91 15.4339 23.6486 15.628 23.3009 15.6259Z" fill="#434343"/>
<path d="M22.3784 4.146C22.5907 4.15986 22.772 4.27613 22.8723 4.49907C23.0291 4.84575 23.2062 5.18922 23.3129 5.5519C23.3854 5.79724 23.4814 5.88151 23.7363 5.89964C24.8574 5.97644 25.7481 6.46179 26.3348 7.44422C26.5791 7.85276 26.5396 8.17384 26.2239 8.37864C25.9092 8.58238 25.5892 8.48318 25.33 8.09917C24.707 7.18074 23.8558 6.8874 22.6707 7.19568C22.4296 7.25861 22.1992 7.35781 21.9624 7.43782C21.572 7.57009 21.2605 7.45915 21.1293 7.14554C20.9939 6.82127 21.1293 6.52686 21.4952 6.34445C21.5304 6.32739 21.5656 6.30925 21.6019 6.29432C22.0549 6.09734 22.1719 5.76702 21.9528 5.30336C21.8856 5.16149 21.8035 5.02069 21.7651 4.87028C21.6723 4.50441 21.9667 4.14706 22.3774 4.14706L22.3784 4.146Z" fill="#434343"/>
<path d="M18.197 5.38136C18.1596 6.60273 17.637 7.42728 16.6449 7.95743C16.1767 8.2081 15.6796 8.37557 15.1537 8.45024C14.7377 8.50891 14.4561 8.34677 14.3857 8.01716C14.3078 7.65449 14.4988 7.38355 14.9222 7.28861C15.3862 7.18514 15.8439 7.07101 16.2481 6.80433C16.8775 6.38939 17.0866 5.88911 16.9383 5.14882C16.8967 4.94295 16.8433 4.73601 16.8327 4.52801C16.8145 4.18773 17.0055 3.97332 17.3298 3.91892C17.6402 3.86665 17.8727 4.01279 17.9676 4.32C18.0839 4.69654 18.1756 5.08055 18.1981 5.38243L18.197 5.38136Z" fill="#434343"/>
<path d="M23.2662 21.2486C21.9755 21.2336 20.9152 20.4592 20.5291 19.2496C20.4054 18.8602 20.5206 18.5733 20.8566 18.44C21.1702 18.3141 21.4454 18.441 21.6225 18.7962C21.6694 18.8901 21.7046 18.9893 21.7505 19.0843C22.1259 19.8629 22.7948 20.1936 23.6353 20.0016C23.9297 19.9344 24.2135 19.8256 24.5057 19.7477C24.8609 19.6539 25.1681 19.8032 25.2812 20.1104C25.3943 20.4187 25.2567 20.7142 24.9047 20.871C24.3841 21.1024 23.8465 21.271 23.2662 21.2486Z" fill="#434343"/>
<path d="M16.047 9.35291C16.463 9.35397 16.7403 9.76785 16.5761 10.1593C16.5206 10.2895 16.4257 10.4047 16.3393 10.5209C15.8358 11.1994 15.7014 11.9492 15.8987 12.7653C15.9201 12.8549 15.9531 12.9423 15.9681 13.0319C16.0257 13.3754 15.9105 13.6282 15.5691 13.7488C15.2662 13.8554 14.9803 13.7232 14.8416 13.385C14.5472 12.6639 14.5557 11.9194 14.7286 11.1738C14.8619 10.6009 15.1286 10.09 15.5094 9.63985C15.6502 9.47238 15.8176 9.3529 16.0481 9.35504L16.047 9.35291Z" fill="#434343"/>
</svg>
