<svg width="45" height="25" viewBox="0 0 45 25" fill="none" xmlns="http://www.w3.org/2000/svg">
<path d="M43.2804 11.3741C29.3013 -3.05806 14.793 -3.05806 0.819719 11.3741C0.652086 11.5467 0.550049 11.7759 0.550049 12.0248C0.550049 12.2737 0.652086 12.5029 0.821177 12.6768L0.819719 12.6755C7.80636 19.8922 14.949 23.55 22.0479 23.55C29.1453 23.55 36.2923 19.8922 43.2789 12.6755C43.448 12.5029 43.55 12.2751 43.55 12.0248C43.55 11.7745 43.448 11.5467 43.2775 11.3728L43.2804 11.3741ZM3.10681 12.0248C15.7944 -0.65423 28.3115 -0.648961 40.9947 12.0248C28.3086 24.6972 15.7901 24.6972 3.10681 12.0248Z" fill="#434343" stroke="#434343" stroke-width="1.1"/>
<path d="M22.05 5.54999C25.6399 5.54999 28.55 8.46014 28.55 12.05C28.55 15.6398 25.6399 18.55 22.05 18.55C18.4602 18.55 15.55 15.6398 15.55 12.05C15.55 8.46014 18.4602 5.54999 22.05 5.54999ZM20.05 6.54999C18.6693 6.54999 17.55 7.66928 17.55 9.04999C17.55 10.4307 18.6693 11.55 20.05 11.55C21.4308 11.55 22.55 10.4307 22.55 9.04999C22.55 7.66928 21.4308 6.54999 20.05 6.54999Z" fill="#434343"/>
</svg>
