<?xml version="1.0" standalone="no"?>
<!DOCTYPE svg PUBLIC "-//W3C//DTD SVG 20010904//EN"
 "http://www.w3.org/TR/2001/REC-SVG-20010904/DTD/svg10.dtd">
<svg version="1.0" xmlns="http://www.w3.org/2000/svg"
 width="2657.000000pt" height="2277.000000pt" viewBox="0 0 2657.000000 2277.000000"
 preserveAspectRatio="xMidYMid meet">

<g transform="translate(0.000000,2277.000000) scale(0.100000,-0.100000)"
fill="#000000" stroke="none">
<path d="M10800 22759 c-4405 -194 -8292 -2958 -9948 -7075 -819 -2036 -1023
-4324 -577 -6494 233 -1135 640 -2229 1203 -3235 942 -1682 2300 -3100 3937
-4111 413 -256 870 -497 1305 -690 80 -36 154 -69 165 -74 129 -59 453 -185
693 -269 776 -273 1582 -460 2397 -555 181 -22 302 -33 655 -60 170 -14 969
-18 1190 -7 925 47 1760 186 2625 437 1491 434 2899 1192 4095 2203 351 297
875 807 1145 1114 l130 148 3 -1955 2 -1956 3365 0 3365 0 0 11295 0 11295
-3365 0 -3365 0 -2 -1956 -3 -1957 -155 174 c-190 214 -620 646 -835 839
-1163 1044 -2484 1820 -3935 2311 -1296 440 -2707 639 -4090 578z"/>
</g>
</svg>
