<svg width="171" height="58" viewBox="0 0 171 58" fill="none" xmlns="http://www.w3.org/2000/svg">
<path d="M45.0892 1.0625V9.94698C40.385 4.50638 33.424 1.0625 25.6606 1.0625C11.493 1.0625 0 12.5445 0 26.7048C0 40.865 11.493 52.347 25.6606 52.347C33.424 52.347 40.385 48.8995 45.0892 43.4625V52.3543H60.4511V1.0625H45.0892ZM12.9622 14.4826C14.4277 13.1124 18.6482 10.4892 24.6128 10.1961C24.774 10.1888 24.9315 10.1851 25.089 10.1815C31.3686 10.0386 35.9922 13.5631 37.5896 14.9443C38.2674 15.5341 38.3443 16.5673 37.7508 17.2451C37.4504 17.5931 37.0144 17.7983 36.5528 17.8093C36.1461 17.8166 35.7541 17.6774 35.4427 17.4099C34.1347 16.2742 30.3025 13.3286 25.1696 13.4422C25.0377 13.4422 24.9095 13.4495 24.774 13.4568C19.8902 13.695 16.5636 15.8565 15.197 16.8604C14.9039 17.1352 14.5193 17.2927 14.1199 17.3C13.6546 17.311 13.2076 17.1242 12.8889 16.7871C12.2697 16.1276 12.3064 15.0981 12.9622 14.4826ZM37.8351 33.446L37.8057 33.5009C35.8713 37.1023 30.5699 37.6409 28.1116 34.1238C27.3202 33.0869 27.0198 31.8339 26.9062 30.5736C26.8513 30.1413 26.7487 29.6907 26.5106 29.4086C25.95 28.7528 24.7373 28.5622 23.8764 28.8956C22.8432 29.3426 22.4658 30.3868 22.4988 31.4383C22.5611 34.1714 24.283 36.5711 25.8987 37.8571C26.8366 38.6154 27.8991 39.1906 29.0312 39.579C30.2292 39.8465 31.2587 40.9419 30.6725 42.2095C29.5111 44.7631 24.8619 41.638 23.477 40.5096C20.6266 38.2821 18.0547 33.3324 19.1648 29.3536C20.4471 24.6054 26.8586 23.6675 29.6467 27.5474C30.6505 28.8444 30.1743 30.6652 31.0096 31.9841C31.5591 32.8305 32.7059 33.1126 33.5925 32.7352C36.8935 30.973 33.4826 25.1477 31.4199 23.4954C26.9136 19.4396 18.6776 20.7952 15.8052 26.1882C13.9294 29.5588 14.3251 32.8378 15.6 36.256C15.8858 37.6446 14.2481 38.817 13.0245 38.0696C12.5775 37.8131 12.2807 37.3698 12.0902 36.9191C11.7275 36.0545 11.3502 34.9151 11.1193 33.5522C9.96161 27.236 13.6583 20.4398 19.8683 18.4211C24.1145 16.9446 29.3573 17.322 32.9513 20.1211C36.7103 22.9458 40.0076 28.8444 37.8351 33.446Z" fill="#434343"/>
<path d="M79.9897 4.99368H74.0215V1.00757H90.4459V4.99368H84.496V24.807H79.9897V4.99368Z" fill="#434343"/>
<path d="M102.272 24.8107V22.2314C102.166 22.4952 101.887 22.8689 101.444 23.3489C101.001 23.8288 100.4 24.2648 99.6486 24.6568C98.8975 25.0452 98.0183 25.243 97.0071 25.243C95.5892 25.243 94.3326 24.9023 93.2371 24.2245C92.1453 23.5467 91.288 22.6125 90.6689 21.4291C90.0497 20.2457 89.7383 18.9085 89.7383 17.4173C89.7383 15.9262 90.046 14.589 90.6689 13.4056C91.288 12.2222 92.1453 11.288 93.2371 10.6029C94.3326 9.91775 95.5856 9.57703 97.0071 9.57703C97.9926 9.57703 98.8499 9.74188 99.5753 10.0716C100.301 10.4014 100.891 10.786 101.341 11.2257C101.792 11.6653 102.085 12.0574 102.217 12.4054V10.0093H106.76V24.8107H102.272ZM94.23 17.4173C94.23 18.2453 94.4168 18.9781 94.7905 19.6082C95.1642 20.2384 95.6552 20.7293 96.2707 21.0774C96.8825 21.4254 97.5493 21.6013 98.271 21.6013C99.0294 21.6013 99.6999 21.4254 100.29 21.0701C100.88 20.7147 101.345 20.2237 101.686 19.5899C102.026 18.9561 102.199 18.2344 102.199 17.4173C102.199 16.6003 102.026 15.8749 101.686 15.2448C101.345 14.6146 100.876 14.1163 100.29 13.7573C99.7036 13.3983 99.0294 13.2151 98.271 13.2151C97.5127 13.2151 96.8825 13.3909 96.2707 13.7463C95.6588 14.1017 95.1642 14.5926 94.7905 15.2264C94.4168 15.8603 94.23 16.5857 94.23 17.4173Z" fill="#434343"/>
<path d="M118.157 21.6012C118.937 21.6012 119.575 21.4693 120.066 21.2055C120.56 20.9417 120.883 20.7439 121.04 20.612L123.169 23.7664C123 23.8983 122.689 24.0852 122.231 24.327C121.773 24.5688 121.194 24.7813 120.491 24.9681C119.787 25.155 118.985 25.2466 118.084 25.2466C116.519 25.2466 115.12 24.9315 113.881 24.3013C112.643 23.6712 111.669 22.7699 110.95 21.5975C110.236 20.4251 109.877 19.0293 109.877 17.4062C109.877 15.7832 110.236 14.3727 110.95 13.204C111.665 12.0389 112.643 11.1413 113.881 10.5185C115.12 9.89564 116.519 9.58057 118.084 9.58057C118.974 9.58057 119.762 9.67583 120.454 9.87C121.147 10.0642 121.725 10.2803 122.194 10.5258C122.663 10.7713 122.986 10.9728 123.169 11.1303L120.985 14.3031C120.901 14.2078 120.74 14.0759 120.498 13.9074C120.256 13.7389 119.941 13.5813 119.553 13.4384C119.161 13.2956 118.695 13.2223 118.157 13.2223C117.497 13.2223 116.867 13.3981 116.274 13.7462C115.68 14.0942 115.193 14.5815 114.823 15.208C114.449 15.8345 114.262 16.5673 114.262 17.4062C114.262 18.2452 114.449 18.9853 114.823 19.6155C115.197 20.2456 115.68 20.7365 116.274 21.0846C116.867 21.4326 117.497 21.6085 118.157 21.6085V21.6012Z" fill="#434343"/>
<path d="M124.324 10.0056H126.991V3.93115H131.534V10.0056H135.033V13.8085H131.534V19.1648C131.534 19.8756 131.648 20.4251 131.879 20.8135C132.11 21.2018 132.469 21.3997 132.96 21.3997C133.333 21.3997 133.637 21.3227 133.879 21.1725C134.121 21.0223 134.264 20.9161 134.311 20.8574L135.934 24.1401C135.861 24.2134 135.63 24.338 135.242 24.5212C134.854 24.7043 134.352 24.8655 133.747 25.0158C133.139 25.166 132.458 25.2392 131.699 25.2392C130.34 25.2392 129.215 24.8472 128.329 24.0595C127.442 23.2718 126.995 22.0482 126.995 20.3922V13.8122H124.328V10.0092L124.324 10.0056Z" fill="#434343"/>
<path d="M140.841 6.18423C140.082 6.18423 139.445 5.92044 138.921 5.38921C138.397 4.86163 138.137 4.22782 138.137 3.49508C138.137 2.76234 138.4 2.12485 138.932 1.58262C139.459 1.0404 140.097 0.772949 140.844 0.772949C141.335 0.772949 141.786 0.897507 142.196 1.14298C142.606 1.38844 142.936 1.71817 143.189 2.12485C143.442 2.53518 143.566 2.98949 143.566 3.49508C143.566 4.22782 143.299 4.85797 142.764 5.38921C142.229 5.91678 141.588 6.18423 140.844 6.18423H140.841ZM138.496 24.8105V10.0091H143.057V24.8105H138.496Z" fill="#434343"/>
<path d="M151.871 24.8106H147.273V0H151.871V24.8106Z" fill="#434343"/>
<path d="M159.177 18.4248C159.213 19.0989 159.393 19.6997 159.715 20.2273C160.041 20.7549 160.51 21.1725 161.129 21.4693C161.749 21.7697 162.496 21.9199 163.375 21.9199C164.145 21.9199 164.826 21.8247 165.423 21.6305C166.017 21.44 166.522 21.2055 166.936 20.9271C167.35 20.6523 167.654 20.3738 167.845 20.0991L169.757 22.8945C169.409 23.3268 168.959 23.7225 168.406 24.0742C167.852 24.4296 167.145 24.7117 166.288 24.9205C165.427 25.1293 164.353 25.2356 163.068 25.2356C161.445 25.2356 160.019 24.9168 158.796 24.2793C157.568 23.6419 156.612 22.7223 155.92 21.5206C155.227 20.3189 154.883 18.8864 154.883 17.2304C154.883 15.7869 155.191 14.4863 155.81 13.3285C156.429 12.1708 157.323 11.2512 158.495 10.5808C159.668 9.90664 161.074 9.56958 162.723 9.56958C164.273 9.56958 165.617 9.86634 166.753 10.4635C167.889 11.057 168.768 11.9253 169.395 13.0684C170.021 14.2115 170.333 15.6037 170.333 17.2524C170.333 17.3476 170.333 17.5455 170.325 17.8459C170.318 18.1463 170.303 18.3405 170.281 18.4211H159.177V18.4248ZM166.042 15.5964C166.031 15.2117 165.914 14.7977 165.691 14.3544C165.467 13.9111 165.119 13.53 164.647 13.2186C164.17 12.9072 163.551 12.7497 162.782 12.7497C162.012 12.7497 161.36 12.9036 160.862 13.2113C160.364 13.5191 159.99 13.8891 159.745 14.3214C159.499 14.7537 159.353 15.1824 159.301 15.6H166.042V15.5964Z" fill="#434343"/>
<path d="M80.5977 33.3763H83.023V49.8996H90.3834V52.0979H80.5977V33.3763Z" fill="#434343"/>
<path d="M95.0608 36.4685C94.6174 36.4685 94.2364 36.3109 93.9177 35.9922C93.5989 35.6734 93.4414 35.2961 93.4414 34.8491C93.4414 34.4021 93.5989 34.0211 93.9177 33.6987C94.2364 33.3763 94.6138 33.2151 95.0608 33.2151C95.3539 33.2151 95.625 33.292 95.8741 33.4422C96.1232 33.5924 96.3247 33.7903 96.4786 34.0321C96.6288 34.2739 96.7058 34.545 96.7058 34.8491C96.7058 35.2924 96.5446 35.6734 96.2222 35.9922C95.8997 36.3072 95.5114 36.4685 95.0608 36.4685ZM93.8005 52.0978V40.4546H96.2698V52.0978H93.8005Z" fill="#434343"/>
<path d="M99.0469 40.4546H101.329V35.6735H103.784V40.4546H106.777V42.5686H103.784V48.3279C103.784 49.0093 103.905 49.5113 104.147 49.83C104.389 50.1524 104.711 50.3136 105.118 50.3136C105.477 50.3136 105.755 50.2477 105.957 50.1158C106.154 49.9839 106.272 49.8923 106.312 49.8447L107.29 51.6619C107.232 51.7095 107.081 51.7974 106.836 51.933C106.59 52.0649 106.272 52.1821 105.887 52.2884C105.502 52.3946 105.044 52.4459 104.528 52.4459C103.619 52.4459 102.861 52.1711 102.253 51.6179C101.644 51.0647 101.337 50.1891 101.337 48.9874V42.5759H99.0542V40.4619L99.0469 40.4546Z" fill="#434343"/>
<path d="M110.977 46.7781C110.988 47.4778 111.138 48.1153 111.431 48.6942C111.724 49.2694 112.16 49.731 112.743 50.0681C113.325 50.4088 114.04 50.5773 114.893 50.5773C115.611 50.5773 116.223 50.4711 116.729 50.2586C117.234 50.0461 117.648 49.7896 117.971 49.4929C118.293 49.1961 118.524 48.9286 118.667 48.6905L119.872 50.178C119.561 50.6323 119.18 51.0279 118.729 51.3687C118.282 51.7094 117.736 51.9732 117.092 52.1564C116.447 52.3396 115.663 52.4311 114.736 52.4311C113.486 52.4311 112.406 52.1637 111.493 51.6288C110.581 51.0939 109.878 50.3538 109.387 49.4013C108.896 48.4487 108.65 47.3606 108.65 46.1332C108.65 44.9975 108.881 43.9753 109.346 43.0631C109.808 42.1508 110.482 41.429 111.369 40.9015C112.255 40.3739 113.318 40.1064 114.567 40.1064C115.71 40.1064 116.707 40.3446 117.553 40.8245C118.399 41.3008 119.055 41.9749 119.524 42.8469C119.993 43.7189 120.228 44.7557 120.228 45.9684C120.228 46.0453 120.224 46.1809 120.213 46.3714C120.202 46.5655 120.195 46.7011 120.184 46.7744H110.981L110.977 46.7781ZM117.868 44.9206C117.857 44.5322 117.747 44.1072 117.535 43.6456C117.322 43.184 116.978 42.7846 116.505 42.4549C116.033 42.1251 115.395 41.9566 114.589 41.9566C113.783 41.9566 113.087 42.1178 112.582 42.4402C112.076 42.7626 111.706 43.151 111.468 43.6089C111.23 44.0669 111.094 44.5066 111.057 44.9206H117.865H117.868Z" fill="#434343"/>
<path d="M125.371 52.0979H122.916V40.4546H125.371V42.4697H125.301C125.349 42.2242 125.525 41.9164 125.825 41.5464C126.129 41.1764 126.543 40.8466 127.074 40.5535C127.602 40.2604 128.236 40.1139 128.976 40.1139C129.514 40.1139 129.991 40.1872 130.401 40.3337C130.811 40.4803 131.104 40.6231 131.273 40.766L130.265 42.8104C130.134 42.6785 129.903 42.5429 129.569 42.4074C129.24 42.2718 128.826 42.2022 128.335 42.2022C127.708 42.2022 127.177 42.3964 126.73 42.7847C126.283 43.1731 125.946 43.6384 125.715 44.1806C125.484 44.7265 125.367 45.2284 125.367 45.69V52.1015L125.371 52.0979Z" fill="#434343"/>
<path d="M141.969 52.0977V49.8299C141.892 50.068 141.672 50.3941 141.309 50.8081C140.946 51.2258 140.448 51.5995 139.822 51.9365C139.195 52.2736 138.451 52.4385 137.601 52.4385C136.524 52.4385 135.546 52.182 134.674 51.6728C133.802 51.1635 133.102 50.4454 132.589 49.5222C132.077 48.5989 131.816 47.5218 131.816 46.2798C131.816 45.0378 132.073 43.9607 132.589 43.0374C133.106 42.1141 133.798 41.3961 134.674 40.8831C135.55 40.3666 136.524 40.1101 137.601 40.1101C138.444 40.1101 139.173 40.2603 139.792 40.5644C140.411 40.8685 140.906 41.2165 141.28 41.6159C141.653 42.0152 141.873 42.3523 141.939 42.6381V40.4545H144.379V52.0977H141.969ZM134.253 46.2834C134.253 47.1261 134.436 47.8552 134.806 48.467C135.176 49.0825 135.656 49.5588 136.246 49.8922C136.836 50.2256 137.469 50.3941 138.14 50.3941C138.858 50.3941 139.503 50.2256 140.071 49.8849C140.639 49.5441 141.086 49.0642 141.419 48.445C141.749 47.8259 141.917 47.1041 141.917 46.2834C141.917 45.4628 141.752 44.741 141.419 44.1219C141.089 43.5027 140.639 43.0191 140.071 42.6747C139.503 42.3303 138.862 42.1581 138.14 42.1581C137.469 42.1581 136.839 42.3266 136.246 42.6674C135.656 43.0081 135.176 43.4844 134.806 44.0999C134.436 44.7154 134.253 45.4444 134.253 46.2834Z" fill="#434343"/>
<path d="M153.171 50.3979C153.908 50.3979 154.505 50.2807 154.959 50.0425C155.414 49.8044 155.696 49.6359 155.809 49.5333L157.015 51.3065C156.919 51.3908 156.696 51.5263 156.34 51.7095C155.985 51.8927 155.531 52.0612 154.978 52.2114C154.424 52.3616 153.798 52.4386 153.098 52.4386C152.028 52.4386 151.035 52.2005 150.119 51.7205C149.204 51.2442 148.463 50.5445 147.899 49.6285C147.335 48.7126 147.057 47.5915 147.057 46.2689C147.057 44.9463 147.339 43.8142 147.899 42.902C148.463 41.9897 149.2 41.2973 150.119 40.8247C151.035 40.352 152.028 40.1139 153.098 40.1139C153.787 40.1139 154.402 40.1982 154.941 40.363C155.48 40.5279 155.923 40.7111 156.275 40.9089C156.623 41.1068 156.857 41.2606 156.971 41.3632L155.751 43.1364C155.674 43.0595 155.531 42.9459 155.318 42.7884C155.106 42.6309 154.82 42.488 154.461 42.3561C154.102 42.2242 153.67 42.1582 153.171 42.1582C152.567 42.1582 151.977 42.3231 151.405 42.6492C150.834 42.9752 150.361 43.4442 149.995 44.0597C149.629 44.6752 149.442 45.4116 149.442 46.2726C149.442 47.1336 149.625 47.8736 149.995 48.4928C150.365 49.112 150.834 49.5846 151.405 49.9106C151.977 50.2367 152.567 50.4016 153.171 50.4016V50.3979Z" fill="#434343"/>
<path d="M164.291 49.8447L168.218 40.4546H170.688L162.829 58.0001H160.334L162.972 52.1015L158.18 40.4582H160.689L164.291 49.8483V49.8447Z" fill="#434343"/>
</svg>
